<svg width="30" height="30" viewBox="0 0 30 30" fill="none" xmlns="http://www.w3.org/2000/svg">
<path d="M10.6667 10.8167H10.8167V10.6667V5.55556V5.40556H10.6667H5.55559H5.40559V5.55556V10.6667V10.8167H5.55559H10.6667ZM23.4445 10.8167H23.5945V10.6667V5.55556V5.40556H23.4445H18.3334H18.1834V5.55556V10.6667V10.8167H18.3334H23.4445ZM10.6667 23.5944H10.8167V23.4444V18.3333V18.1833H10.6667H5.55559H5.40559V18.3333V23.4444V23.5944H5.55559H10.6667ZM4.27781 3.15H11.9445C12.2436 3.15 12.5304 3.26882 12.7419 3.48032C12.9534 3.69182 13.0723 3.97867 13.0723 4.27778V11.9444C13.0723 12.2435 12.9534 12.5304 12.7419 12.7419C12.5304 12.9534 12.2436 13.0722 11.9445 13.0722H4.27781C3.9787 13.0722 3.69185 12.9534 3.48035 12.7419C3.26885 12.5304 3.15003 12.2435 3.15003 11.9444V4.27778C3.15003 3.97867 3.26885 3.69182 3.48035 3.48032C3.69185 3.26882 3.9787 3.15 4.27781 3.15ZM17.0556 3.15H24.7223C25.0214 3.15 25.3082 3.26882 25.5197 3.48032C25.7312 3.69182 25.85 3.97867 25.85 4.27778V11.9444C25.85 12.2436 25.7312 12.5304 25.5197 12.7419C25.3082 12.9534 25.0214 13.0722 24.7223 13.0722H17.0556C16.7565 13.0722 16.4696 12.9534 16.2581 12.7419C16.0466 12.5304 15.9278 12.2435 15.9278 11.9444V4.27778C15.9278 3.97867 16.0466 3.69182 16.2581 3.48032C16.4696 3.26882 16.7565 3.15 17.0556 3.15ZM4.27781 15.9278H11.9445C12.2436 15.9278 12.5304 16.0466 12.7419 16.2581C12.9534 16.4696 13.0723 16.7565 13.0723 17.0556V24.7222C13.0723 25.0213 12.9534 25.3082 12.7419 25.5197C12.5304 25.7312 12.2436 25.85 11.9445 25.85H4.27781C3.9787 25.85 3.69185 25.7312 3.48035 25.5197C3.26885 25.3082 3.15003 25.0213 3.15003 24.7222V17.0556C3.15003 16.7565 3.26885 16.4696 3.48035 16.2581C3.69185 16.0466 3.9787 15.9278 4.27781 15.9278ZM15.9278 20.8889C15.9278 18.153 18.153 15.9278 20.8889 15.9278C23.6249 15.9278 25.85 18.153 25.85 20.8889C25.85 23.6248 23.6249 25.85 20.8889 25.85C18.153 25.85 15.9278 23.6248 15.9278 20.8889ZM18.1834 20.8889C18.1834 22.3811 19.3967 23.5944 20.8889 23.5944C22.3812 23.5944 23.5945 22.3811 23.5945 20.8889C23.5945 19.3967 22.3812 18.1833 20.8889 18.1833C19.3967 18.1833 18.1834 19.3967 18.1834 20.8889Z" fill="black" stroke="white" stroke-width="0.3"/>
</svg>
