<svg width="25" height="21" viewBox="0 0 25 21" fill="none" xmlns="http://www.w3.org/2000/svg">
<path d="M21.151 0.8125C23.0239 0.8125 24.5416 2.33021 24.5416 4.20312V16.7969C24.5416 18.6698 23.0239 20.1875 21.151 20.1875H3.39059C2.49134 20.1875 1.62893 19.8303 0.99306 19.1944C0.357195 18.5585 -3.05176e-05 17.6961 -3.05176e-05 16.7969V4.20312C-3.05176e-05 2.33021 1.51768 0.8125 3.39059 0.8125H21.151ZM22.9271 6.85169L12.6596 12.4989C12.554 12.5569 12.4366 12.5906 12.3163 12.5974C12.1959 12.6043 12.0756 12.584 11.964 12.5382L11.882 12.4995L1.61455 6.85104V16.7969C1.61455 17.2679 1.80167 17.7197 2.13474 18.0527C2.46782 18.3858 2.91956 18.5729 3.39059 18.5729H21.151C21.622 18.5729 22.0738 18.3858 22.4069 18.0527C22.7399 17.7197 22.9271 17.2679 22.9271 16.7969V6.85169ZM21.151 2.42708H3.39059C2.91956 2.42708 2.46782 2.6142 2.13474 2.94727C1.80167 3.28035 1.61455 3.73209 1.61455 4.20312V5.00977L12.2708 10.8701L22.9271 5.00912V4.20312C22.9271 3.73209 22.7399 3.28035 22.4069 2.94727C22.0738 2.6142 21.622 2.42708 21.151 2.42708Z" fill="black"/>
</svg>
