<svg width="40" height="40" viewBox="0 0 40 40" fill="none" xmlns="http://www.w3.org/2000/svg">
<path d="M21.9527 5H15C11.8573 5 10.286 5 9.30966 5.97632C8.33334 6.95262 8.33334 8.52397 8.33334 11.6667V28.3333C8.33334 31.476 8.33334 33.0473 9.30966 34.0237C10.286 35 11.8573 35 15 35H25C28.1427 35 29.714 35 30.6903 34.0237C31.6667 33.0473 31.6667 31.476 31.6667 28.3333V14.7141C31.6667 14.0328 31.6667 13.6922 31.5398 13.3859C31.413 13.0796 31.172 12.8387 30.6903 12.357L24.3097 5.97632C23.828 5.4946 23.587 5.25373 23.2808 5.12687C22.9745 5 22.6338 5 21.9527 5Z" stroke="black" stroke-opacity="0.75" stroke-width="1.66667"/>
<path d="M15 21.6667H25" stroke="black" stroke-opacity="0.75" stroke-width="1.66667" stroke-linecap="round"/>
<path d="M15 28.3333H21.6667" stroke="black" stroke-opacity="0.75" stroke-width="1.66667" stroke-linecap="round"/>
<path d="M21.6667 5V11.6667C21.6667 13.238 21.6667 14.0237 22.1548 14.5119C22.643 15 23.4287 15 25 15H31.6667" stroke="black" stroke-opacity="0.75" stroke-width="1.66667"/>
</svg>
