<svg width="39" height="39" viewBox="0 0 39 39" fill="none" xmlns="http://www.w3.org/2000/svg">
<path d="M8.12512 20.6886C8.12512 18.4823 8.12512 17.3791 8.57112 16.4093C9.01712 15.4397 9.85472 14.7217 11.5299 13.2859L13.1549 11.893C16.1828 9.29768 17.6967 8 19.5001 8C21.3035 8 22.8174 9.29768 25.8453 11.893L27.4703 13.2859C29.1455 14.7217 29.9832 15.4397 30.4291 16.4093C30.8751 17.3791 30.8751 18.4823 30.8751 20.6886V27.5793C30.8751 30.6434 30.8751 32.1754 29.9232 33.1273C28.9713 34.0793 27.4392 34.0793 24.3751 34.0793H14.6251C11.561 34.0793 10.0289 34.0793 9.07703 33.1273C8.12512 32.1754 8.12512 30.6434 8.12512 27.5793V20.6886Z" stroke="black" stroke-width="1.91667"/>
<path d="M23.5626 33.75V25.625C23.5626 24.7275 22.8351 24 21.9376 24H17.0626C16.1652 24 15.4376 24.7275 15.4376 25.625V33.75" stroke="#171717" stroke-width="1.91667" stroke-linecap="round" stroke-linejoin="round"/>
</svg>
