<svg width="30" height="30" viewBox="0 0 30 30" fill="none" xmlns="http://www.w3.org/2000/svg">
<path d="M12.8355 3.68309L12.9071 3.66348L12.9349 3.59467C13.1076 3.16783 13.4038 2.80229 13.7856 2.5449C14.1674 2.28751 14.6174 2.15 15.0779 2.15C15.5383 2.15 15.9883 2.28751 16.3701 2.5449C16.7519 2.80229 17.0481 3.16783 17.2208 3.59467L17.2486 3.66338L17.3201 3.68304C19.1085 4.17489 20.6861 5.24025 21.8104 6.71548C22.9347 8.19072 23.5437 9.99426 23.5438 11.8491V17.6304V17.6758L23.569 17.7136L25.8239 21.096L25.8239 21.096C25.9325 21.2588 25.9949 21.448 26.0044 21.6434C26.0139 21.8389 25.9702 22.0333 25.8778 22.2058C25.7855 22.3783 25.6481 22.5226 25.4802 22.6231C25.3124 22.7237 25.1203 22.7768 24.9247 22.7767H19.3427H19.2129L19.1943 22.9053C19.0512 23.895 18.5564 24.8001 17.8004 25.4547C17.0444 26.1093 16.0779 26.4696 15.0779 26.4696C14.0778 26.4696 13.1113 26.1093 12.3553 25.4547C11.5993 24.8001 11.1045 23.895 10.9614 22.9053L10.9428 22.7767H10.813H5.23106C5.03536 22.7768 4.84334 22.7237 4.67547 22.6231C4.50761 22.5226 4.37018 22.3783 4.27787 22.2058C4.18555 22.0333 4.14181 21.8389 4.1513 21.6435C4.1608 21.448 4.22317 21.2588 4.33177 21.096L4.33181 21.096L6.58672 17.7136L6.61191 17.6758V17.6304V11.8491C6.61191 7.95012 9.24832 4.66514 12.8355 3.68309ZM13.3362 22.9267V22.9272L13.196 22.9767C13.3334 23.3661 13.5883 23.7034 13.9255 23.9419C14.2626 24.1805 14.6655 24.3086 15.0785 24.3086C15.4915 24.3086 15.8943 24.1805 16.2315 23.9419C16.5686 23.7034 16.8235 23.3661 16.961 22.9767L17.0315 22.7767H16.8195H13.4436H13.3374H13.3362V22.9267ZM8.77361 18.0033V18.0034C8.77366 18.2169 8.71047 18.4256 8.59203 18.6033L8.59201 18.6033L7.4067 20.3819L7.2513 20.615H7.53152H22.623H22.9032L22.7478 20.3819L21.5626 18.6035C21.4445 18.4257 21.3817 18.217 21.3821 18.0036V18.0033V11.8491C21.3821 10.1771 20.7179 8.5736 19.5356 7.39133C18.3534 6.20905 16.7498 5.54486 15.0779 5.54486C13.4059 5.54486 11.8024 6.20905 10.6201 7.39133C9.43781 8.5736 8.77361 10.1771 8.77361 11.8491V18.0033Z" fill="black" stroke="white" stroke-width="0.3"/>
</svg>
