<svg width="28" height="29" viewBox="0 0 28 29" fill="none" xmlns="http://www.w3.org/2000/svg">
<path d="M17.772 14.5817L17.3434 13.8777C17.066 14.0467 16.9137 14.3627 16.9544 14.6849C16.995 15.007 17.221 15.2753 17.5317 15.3701L17.772 14.5817ZM10.0694 14.5817L10.3098 15.3701C10.6204 15.2753 10.8464 15.007 10.8871 14.6849C10.9276 14.3627 10.7753 14.0467 10.4979 13.8777L10.0694 14.5817ZM0.836044 25.5517L0.018214 25.4498L0.836044 25.5517ZM27.0053 25.5517L27.8232 25.4498L27.0053 25.5517ZM20.5139 8.24142C20.5139 10.6281 19.2462 12.7195 17.3434 13.8777L18.2005 15.2857C20.5741 13.8408 22.1622 11.227 22.1622 8.24142H20.5139ZM13.9208 1.64828C17.562 1.64828 20.5139 4.60013 20.5139 8.24142H22.1622C22.1622 3.68982 18.4723 0 13.9208 0V1.64828ZM7.32757 8.24142C7.32757 4.60013 10.2794 1.64828 13.9208 1.64828V0C9.3691 0 5.67928 3.68982 5.67928 8.24142H7.32757ZM10.4979 13.8777C8.59523 12.7195 7.32757 10.6281 7.32757 8.24142H5.67928C5.67928 11.227 7.26734 13.8408 9.64087 15.2857L10.4979 13.8777ZM9.82903 13.7933C4.62581 15.38 0.707395 19.9119 0.018214 25.4498L1.65387 25.6534C2.26143 20.7714 5.71859 16.77 10.3098 15.3701L9.82903 13.7933ZM0.018214 25.4498C-0.163938 26.9135 1.04857 28.0208 2.38271 28.0208V26.3726C1.89622 26.3726 1.61118 25.9966 1.65387 25.6534L0.018214 25.4498ZM2.38271 28.0208H25.4588V26.3726H2.38271V28.0208ZM25.4588 28.0208C26.7929 28.0208 28.0054 26.9135 27.8232 25.4498L26.1875 25.6534C26.2302 25.9966 25.9452 26.3726 25.4588 26.3726V28.0208ZM27.8232 25.4498C27.1341 19.9119 23.2156 15.38 18.0123 13.7933L17.5317 15.3701C22.1228 16.77 25.5799 20.7714 26.1875 25.6534L27.8232 25.4498Z" fill="black"/>
</svg>
