<svg width="24" height="27" viewBox="0 0 24 27" fill="none" xmlns="http://www.w3.org/2000/svg">
<path d="M11.6752 2.73381L11.625 2.71295L11.5748 2.73381L2.53314 6.49172L2.45256 6.52522V6.61248V12.2916C2.45256 17.8122 6.34086 22.9017 11.5887 24.416L11.625 24.4265L11.6613 24.416C16.9091 22.9017 20.7974 17.8122 20.7974 12.2916V6.61248V6.52522L20.7169 6.49172L11.6752 2.73381ZM0.130769 5.1289L11.625 0.349935L23.1192 5.1289V12.2916C23.1192 18.927 18.216 25.1369 11.625 26.6575C5.03399 25.1369 0.130769 18.927 0.130769 12.2916V5.1289ZM12.7859 7.58908V9.74421H10.4641V7.58908H12.7859ZM12.7859 12.4224V19.4109H10.4641V12.4224H12.7859Z" fill="black" stroke="white" stroke-width="0.261538"/>
</svg>
